<?xml version="1.0" encoding="utf-8"?>
<svg version="1.1" xmlns="http://www.w3.org/2000/svg" xmlns:xlink="http://www.w3.org/1999/xlink"  width="229.695" height="58.957" viewBox="0 0 229.695 58.957">
  <g>
      <path
         d="m 144.71177,31.803032 h -2.07165 q -0.16162,0.631779 -0.57301,1.057862 -0.41139,0.426083 -1.19009,0.426083 -0.42608,0 -0.76401,-0.146925 -0.32324,-0.146926 -0.54363,-0.396698 -0.14692,-0.161618 -0.24977,-0.352621 -0.10285,-0.205695 -0.16162,-0.528931 -0.0588,-0.323235 -0.0882,-0.822781 -0.0147,-0.499546 -0.0147,-1.248865 0,-0.749319 0.0147,-1.248864 0.0294,-0.499546 0.0882,-0.822782 0.0588,-0.323235 0.16162,-0.514238 0.10285,-0.205695 0.24977,-0.367313 0.22039,-0.249773 0.54363,-0.396698 0.33793,-0.146925 0.76401,-0.146925 0.7787,0 1.19009,0.426083 0.41139,0.426083 0.57301,1.057861 h 2.07165 q -0.13223,-0.822781 -0.48486,-1.439867 -0.33792,-0.617086 -0.85216,-1.028477 -0.49955,-0.426083 -1.14602,-0.631778 -0.63178,-0.205695 -1.3664,-0.205695 -0.86686,0 -1.5721,0.29385 -0.69055,0.29385 -1.24887,0.852166 -0.3967,0.396699 -0.61708,0.852167 -0.2057,0.440776 -0.29385,0.955014 -0.0882,0.514238 -0.10285,1.101939 -0.0147,0.587701 -0.0147,1.263557 0,0.675856 0.0147,1.263557 0.0147,0.587701 0.10285,1.10194 0.0882,0.514238 0.29385,0.969706 0.22038,0.440776 0.61708,0.837474 0.55832,0.558316 1.24887,0.852166 0.70524,0.293851 1.5721,0.293851 0.71993,0 1.3664,-0.205695 0.64647,-0.205696 1.14602,-0.617086 0.51424,-0.426084 0.85216,-1.04317 0.35263,-0.617086 0.48486,-1.439867 z"
         style="font-style:normal;font-variant:normal;font-weight:normal;font-stretch:normal;font-family:DIN;-inkscape-font-specification:DIN;fill:#ffffff;stroke-width:0.36731309px"
          />
      <path
         d="m 154.414,35.020695 -3.82006,-10.461077 h -1.60148 l -3.80537,10.461077 h 2.13042 l 0.63178,-1.851258 h 3.71721 l 0.61708,1.851258 z m -3.29113,-3.570284 h -2.60057 l 1.32232,-3.805363 z"
         style="font-style:normal;font-variant:normal;font-weight:normal;font-stretch:normal;font-family:DIN;-inkscape-font-specification:DIN;fill:#ffffff;stroke-width:0.36731309px"
          />
      <path
         d="M 165.20784,35.020695 V 24.559618 h -2.01288 l -2.71811,5.656621 -2.73281,-5.656621 h -2.01288 v 10.461077 h 2.04226 v -6.097398 l 2.01288,3.966982 h 1.38109 l 1.99819,-3.966982 v 6.097398 z"
         style="font-style:normal;font-variant:normal;font-weight:normal;font-stretch:normal;font-family:DIN;-inkscape-font-specification:DIN;fill:#ffffff;stroke-width:0.36731309px"
          />
      <path
         d="m 175.14802,27.821358 q 0,-0.661164 -0.23508,-1.248865 -0.23508,-0.602393 -0.69055,-1.043169 -0.44077,-0.455468 -1.08724,-0.705241 -0.63178,-0.264465 -1.43987,-0.264465 h -4.05514 v 10.461077 h 2.04226 v -3.937597 h 2.01288 q 0.80809,0 1.43987,-0.249773 0.64647,-0.264465 1.08724,-0.705241 0.45547,-0.455468 0.69055,-1.043169 0.23508,-0.602393 0.23508,-1.263557 z m -2.04226,0 q 0,0.646471 -0.41139,1.043169 -0.3967,0.382006 -1.10194,0.382006 h -1.91003 v -2.865042 h 1.91003 q 0.70524,0 1.10194,0.396698 0.41139,0.396698 0.41139,1.043169 z"
         style="font-style:normal;font-variant:normal;font-weight:normal;font-stretch:normal;font-family:DIN;-inkscape-font-specification:DIN;fill:#ffffff;stroke-width:0.36731309px"
          />
      <path
         d="m 184.21514,35.020695 -3.82005,-10.461077 h -1.60149 l -3.80536,10.461077 h 2.13041 l 0.63178,-1.851258 h 3.71721 l 0.61709,1.851258 z m -3.29112,-3.570284 h -2.60058 l 1.32233,-3.805363 z"
         style="font-style:normal;font-variant:normal;font-weight:normal;font-stretch:normal;font-family:DIN;-inkscape-font-specification:DIN;fill:#ffffff;stroke-width:0.36731309px"
          />
      <path
         d="M 187.56022,35.020695 V 24.559618 h -2.04226 v 10.461077 z"
         style="font-style:normal;font-variant:normal;font-weight:normal;font-stretch:normal;font-family:DIN;-inkscape-font-specification:DIN;fill:#ffffff;stroke-width:0.36731309px"
          />
      <path
         d="m 197.4437,30.730478 v -1.528023 h -3.95229 v 1.704333 h 1.92472 v 0.396698 q 0,0.411391 -0.11754,0.764011 -0.10285,0.337928 -0.35262,0.631779 -0.24977,0.279158 -0.61709,0.440776 -0.36731,0.146925 -0.83747,0.146925 -0.42608,0 -0.76401,-0.146925 -0.32324,-0.146926 -0.54363,-0.396698 -0.14692,-0.161618 -0.24977,-0.352621 -0.0881,-0.205695 -0.14692,-0.528931 -0.0588,-0.323235 -0.0882,-0.822781 -0.0147,-0.499546 -0.0147,-1.248865 0,-0.749319 0.0147,-1.234172 0.0294,-0.499546 0.0882,-0.822781 0.0588,-0.323236 0.14692,-0.514238 0.10285,-0.205696 0.24977,-0.367314 0.22039,-0.249772 0.54363,-0.396698 0.33793,-0.161617 0.76401,-0.161617 0.79339,0 1.24886,0.396698 0.45547,0.382005 0.63178,1.131324 h 2.05695 q -0.10284,-0.661164 -0.39669,-1.263557 -0.27916,-0.602394 -0.76401,-1.057862 -0.48486,-0.470161 -1.17541,-0.749319 -0.69054,-0.279157 -1.60148,-0.279157 -0.88155,0 -1.5721,0.29385 -0.69055,0.29385 -1.24887,0.852166 -0.39669,0.396699 -0.61708,0.852167 -0.2057,0.440776 -0.29385,0.955014 -0.0882,0.514238 -0.10285,1.101939 -0.0147,0.587701 -0.0147,1.263557 0,0.675856 0.0147,1.263557 0.0147,0.587701 0.10285,1.10194 0.0881,0.514238 0.29385,0.969706 0.22039,0.440776 0.61708,0.837474 0.55832,0.558316 1.24887,0.852166 0.70524,0.293851 1.5721,0.293851 0.83747,0 1.5721,-0.264466 0.74932,-0.264465 1.3811,-0.925629 0.54362,-0.573008 0.76401,-1.307634 0.23508,-0.749319 0.23508,-1.880643 z"
         style="font-style:normal;font-variant:normal;font-weight:normal;font-stretch:normal;font-family:DIN;-inkscape-font-specification:DIN;fill:#ffffff;stroke-width:0.36731309px"
          />
      <path
         d="M 207.5292,35.020695 V 24.559618 h -2.04226 v 6.40594 l -4.1433,-6.40594 h -1.82187 v 10.461077 h 2.04226 v -6.420633 l 4.14329,6.420633 z"
         style="font-style:normal;font-variant:normal;font-weight:normal;font-stretch:normal;font-family:DIN;-inkscape-font-specification:DIN;fill:#ffffff;stroke-width:0.36731309px"
          />
  </g>
  <g>
    <g style="fill:#ffffff" transform="translate(0.5265993,0.5585185)">
      <path
         d="m 48.004,29.004 c 2.554,-1.01 5.106,-3.938 5.106,-8.03 C 53.11,14.588 48.694,10.6 41.674,10.6 H 26.94 v 37.875 h 15.32 c 6.703,0 11.438,-3.726 11.438,-10.692 0,-4.79 -2.767,-7.607 -5.694,-8.78 M 32.686,15.76 h 8.51 c 3.67,0 6.17,1.914 6.17,5.424 0,3.512 -2.5,5.427 -6.17,5.427 h -8.51 z m 9.042,27.553 H 32.686 V 31.768 h 9.042 c 3.99,0 6.225,2.396 6.225,5.746 0,3.35 -2.235,5.8 -6.225,5.8 m 37.31,-23.112 c 0,-6.713 -4.584,-10.915 -11.242,-10.915 -6.604,0 -11.297,4.367 -11.297,10.97 h 5.564 c 0,-4.366 2.784,-6.004 5.73,-6.004 3.604,0 5.678,2.402 5.678,5.896 0,1.964 -0.6,3.382 -2.074,5.184 L 56.445,43.51 v 4.965 H 79.04 V 43.51 H 63.213 l 12.17,-14.9 c 2.398,-2.95 3.655,-4.967 3.655,-8.408 M 118.503,10.598 111.906,37.676 104.3,10.598 H 99.673 L 92.066,37.676 85.47,10.598 H 79.405 L 89.3,48.473 h 5 l 7.66,-26.543 7.713,26.543 h 5 l 9.894,-37.875 m 97.713,18.938 c 0,10.69 -2.833,20.726 -7.766,29.42 h 8.393 c 4.347,-8.892 6.79,-18.875 6.79,-29.42 0,-10.592 -2.466,-20.615 -6.848,-29.536 h -8.403 c 4.975,8.72 7.833,18.798 7.833,29.536 m -214.863,0 C 7.416,18.798 10.274,8.72 15.25,0 H 6.846 C 2.465,8.92 0,18.944 0,29.536 0,40.081 2.443,50.064 6.79,58.956 h 8.392 C 10.249,50.262 7.416,40.226 7.416,29.536" />
    </g>
  </g>
</svg>
