<svg xmlns="http://www.w3.org/2000/svg" width="229.696" height="58.957" viewBox="58.455 15.004 229.696 58.957"><path fill="#030303" d="M106.46 44.008c2.553-1.01 5.106-3.937 5.106-8.032 0-6.384-4.416-10.372-11.436-10.372H85.396V63.48h15.32c6.702 0 11.437-3.727 11.437-10.694 0-4.79-2.767-7.606-5.694-8.778M91.14 30.763h8.51c3.672 0 6.172 1.915 6.172 5.425s-2.5 5.426-6.17 5.426h-8.51v-10.85zm9.043 27.553H91.14V46.77h9.043c3.99 0 6.224 2.397 6.224 5.747s-2.234 5.8-6.224 5.8M137.493 35.206c0-6.713-4.584-10.915-11.242-10.915-6.603 0-11.296 4.368-11.296 10.97h5.566c0-4.365 2.784-6.003 5.73-6.003 3.604 0 5.678 2.402 5.678 5.896 0 1.964-.6 3.382-2.074 5.184L114.9 58.514v4.965h22.594v-4.966h-15.826l12.17-14.9c2.4-2.95 3.655-4.968 3.655-8.408M176.958 25.602l-6.596 27.078-7.607-27.078h-4.627L150.52 52.68l-6.595-27.078h-6.065l9.895 37.875h5l7.66-26.544 7.713 26.544h5l9.894-37.875"/><path fill="#06EAC3" d="M280.735 44.54c0 10.69-2.833 20.726-7.766 29.42h8.392c4.346-8.892 6.79-18.875 6.79-29.42 0-10.592-2.466-20.615-6.848-29.536h-8.402c4.975 8.72 7.833 18.798 7.833 29.536M65.87 44.54c0-10.738 2.86-20.815 7.834-29.536h-8.402c-4.382 8.92-6.847 18.944-6.847 29.536 0 10.545 2.444 20.528 6.79 29.42h8.392c-4.933-8.694-7.766-18.73-7.766-29.42"/><g fill="#999"><path d="M201.545 49.034c-.278.57-.666 1.053-1.162 1.447-.498.397-1.09.696-1.777.9-.688.205-1.44.308-2.26.308-1.184 0-2.215-.153-3.092-.46-.878-.308-1.69-.842-2.435-1.603l1.578-1.557c.57.57 1.177.962 1.82 1.173.644.214 1.367.32 2.172.32 1.023 0 1.816-.21 2.38-.626.563-.417.844-1.005.844-1.766 0-.717-.204-1.258-.613-1.623-.204-.19-.424-.33-.657-.417-.234-.088-.585-.168-1.053-.24l-1.843-.264c-1.272-.176-2.26-.593-2.96-1.25-.762-.717-1.142-1.71-1.142-2.983 0-.672.12-1.29.36-1.853.243-.563.586-1.05 1.032-1.46.446-.408.99-.723 1.634-.94.645-.22 1.376-.33 2.194-.33 1.038 0 1.938.14 2.698.416.76.278 1.477.73 2.15 1.36l-1.515 1.49c-.482-.467-1.005-.784-1.568-.953-.564-.168-1.174-.252-1.832-.252-.92 0-1.627.23-2.116.69-.49.46-.735 1.042-.735 1.744 0 .293.048.56.143.8s.245.458.45.647c.41.365.994.606 1.754.724l1.777.263c.73.117 1.316.268 1.756.45.438.183.825.42 1.162.713.424.38.742.84.954 1.38.212.542.318 1.15.318 1.822.002.718-.137 1.362-.415 1.932zM215.715 42.575c-.234.577-.57 1.074-1.01 1.49-.438.418-.965.746-1.58.987-.612.242-1.3.362-2.06.362h-3.554v6.142h-2.368V35.94h5.922c.76 0 1.448.12 2.062.36.614.242 1.14.57 1.58.988.438.417.774.918 1.01 1.502.232.585.35 1.214.35 1.887 0 .688-.117 1.32-.35 1.898zm-2.775-3.828c-.504-.453-1.173-.68-2.007-.68h-3.42v5.198h3.42c.834 0 1.503-.223 2.007-.67.505-.444.757-1.085.757-1.918s-.252-1.476-.757-1.93zM227.91 51.557l-1.074-3.137h-6.164l-1.074 3.137h-2.522L222.8 35.94h1.91l5.724 15.617h-2.524zm-4.102-12.064l-2.435 6.93h4.804l-2.37-6.93zM242.573 48.946c-.33.6-.738 1.104-1.23 1.514-.488.41-1.044.717-1.666.92-.62.206-1.283.31-1.984.31-.82 0-1.572-.144-2.26-.43s-1.302-.697-1.842-1.238c-.38-.38-.672-.782-.877-1.207-.205-.424-.354-.884-.45-1.382-.095-.496-.15-1.05-.164-1.655s-.022-1.283-.022-2.03c0-.744.007-1.42.02-2.027s.07-1.158.166-1.655c.095-.497.244-.958.45-1.382s.496-.826.877-1.206c.54-.54 1.155-.954 1.843-1.24s1.44-.427 2.26-.427c1.447 0 2.668.41 3.663 1.228.994.82 1.63 2.01 1.908 3.576h-2.413c-.19-.79-.544-1.434-1.062-1.93-.52-.498-1.218-.747-2.095-.747-.47 0-.9.085-1.294.253-.397.168-.732.398-1.01.69-.19.205-.348.428-.473.67-.124.24-.22.54-.285.898-.065.358-.113.8-.143 1.327s-.044 1.185-.044 1.974c0 .79.014 1.446.043 1.974.028.526.076.97.142 1.326.066.358.16.658.285.9.125.24.282.464.472.668.277.293.613.523 1.01.69.394.17.824.253 1.293.253.877 0 1.58-.247 2.105-.745.526-.496.885-1.14 1.074-1.93h2.392c-.132.775-.362 1.462-.69 2.06zM246.422 51.557V35.94h9.98v2.127h-7.61v4.563h6.49v2.105h-6.49v4.693h7.61v2.128h-9.98zM264.758 45.13v6.427h-2.37V45.13l-4.67-9.19h2.588l3.268 6.866 3.27-6.866h2.587l-4.672 9.19z"/></g></svg>